<?xml version="1.0" encoding="iso-8859-1"?>
<!-- Uploaded to: SVG Repo, www.svgrepo.com, Generator: SVG Repo Mixer Tools -->
<svg height="800px" width="800px" version="1.1" id="Layer_1" xmlns="http://www.w3.org/2000/svg" xmlns:xlink="http://www.w3.org/1999/xlink"
	 viewBox="0 0 512 512" xml:space="preserve">
<path style="fill:#183695;" d="M0,256.006C0,397.402,114.606,512.004,255.996,512C397.394,512.004,512,397.402,512,256.006
	C512.009,114.61,397.394,0,255.996,0C114.606,0,0,114.614,0,256.006z"/>
<path style="fill:#002782;" d="M512,256.005c0.002-29.945-5.186-58.665-14.631-85.371c-0.325-0.369-76.672-76.83-77.255-77.254
	c-1.254-1.722-3.186-2.913-5.478-2.913H97.365c-3.809,0-6.897,3.089-6.897,6.898v317.269c0,2.291,1.191,4.224,2.913,5.478
	c0.425,0.582,75.627,75.783,76.208,76.208c0.299,0.409,0.678,0.722,1.05,1.05C197.342,506.813,226.058,512,255.997,512
	C397.394,512.004,512,397.401,512,256.005z"/>
<g>
	<path style="fill:#12b52f;" d="M216.641,309.156c1.344,1.344,3.108,2.02,4.877,2.02c1.687,0,3.378-0.617,4.705-1.856l103.454-96.56
		c2.785-2.599,2.937-6.964,0.337-9.746c-2.596-2.791-6.967-2.93-9.746-0.337l-98.585,92.014l-29.778-29.778
		c-2.694-2.694-7.059-2.694-9.753,0c-2.693,2.694-2.694,7.059,0,9.753L216.641,309.156z"/>
	<path style="fill:#12b52f;" d="M414.635,90.468H97.365c-3.809,0-6.897,3.088-6.897,6.897v317.269c0,3.809,3.088,6.897,6.897,6.897
		h317.269c3.809,0,6.897-3.088,6.897-6.897V97.365C421.532,93.556,418.444,90.468,414.635,90.468z M407.738,407.738H104.262V104.262
		h303.475V407.738z"/>
</g>
</svg>
